<svg width="10" height="17" viewBox="0 0 10 17" fill="none" xmlns="http://www.w3.org/2000/svg">
<path d="M9.3476 8.24854C9.45176 8.3527 9.50385 8.47249 9.50385 8.60791C9.50385 8.74333 9.45176 8.86312 9.3476 8.96729L2.06635 16.2485C1.96218 16.3527 1.84239 16.4048 1.70697 16.4048C1.57155 16.4048 1.45176 16.3527 1.3476 16.2485L0.566345 15.4673C0.462179 15.3631 0.410095 15.2433 0.410095 15.1079C0.410095 14.9725 0.462179 14.8527 0.566345 14.7485L6.70697 8.60791L0.566345 2.46729C0.462179 2.36312 0.410095 2.24333 0.410095 2.10791C0.410095 1.97249 0.462179 1.8527 0.566345 1.74854L1.3476 0.967285C1.45176 0.863119 1.57155 0.811035 1.70697 0.811035C1.84239 0.811035 1.96218 0.863119 2.06635 0.967285L9.3476 8.24854Z" fill="white"/>
</svg>
